<?xml version="1.0" standalone="no"?>
<!DOCTYPE svg PUBLIC "-//W3C//DTD SVG 20010904//EN"
 "http://www.w3.org/TR/2001/REC-SVG-20010904/DTD/svg10.dtd">
<svg version="1.0" xmlns="http://www.w3.org/2000/svg"
 width="100.000000pt" height="100.000000pt" viewBox="0 0 100.000000 100.000000"
 preserveAspectRatio="xMidYMid meet">

<g transform="translate(0.000000,100.000000) scale(0.100000,-0.100000)"
fill="#000000" stroke="none">
<path d="M0 500 l0 -500 500 0 500 0 0 500 0 500 -500 0 -500 0 0 -500z m250
10 c0 -53 4 -72 15 -76 8 -4 12 -10 9 -15 -7 -12 -61 -11 -69 1 -3 6 1 10 9
10 13 0 16 13 16 70 0 56 -3 70 -15 70 -8 0 -15 -7 -15 -15 0 -8 -4 -15 -10
-15 -5 0 -10 9 -10 20 0 16 7 20 35 20 l35 0 0 -70z m210 -15 l0 -85 -44 0
c-25 0 -48 5 -51 10 -4 6 10 10 34 10 39 0 41 2 41 30 0 28 -3 30 -35 30 -19
0 -35 5 -35 10 0 6 16 10 35 10 32 0 35 2 35 29 0 28 -3 30 -42 34 -41 3 -41
4 10 5 l52 2 0 -85z m180 0 l0 -85 -50 0 c-27 0 -50 5 -50 10 0 6 18 10 40 10
38 0 40 2 40 30 0 28 -3 30 -35 30 -19 0 -35 5 -35 10 0 6 16 10 35 10 32 0
35 2 35 29 0 28 -3 30 -42 34 -41 3 -41 4 10 5 l52 2 0 -85z m180 0 c0 -50 -4
-85 -10 -85 -6 0 -10 34 -10 81 l0 80 -32 -3 c-25 -2 -34 -9 -38 -28 -5 -22
-7 -23 -13 -7 -16 41 -9 47 48 47 l55 0 0 -85z"/>
</g>
</svg>
